<svg xmlns="http://www.w3.org/2000/svg" xmlns:xlink="http://www.w3.org/1999/xlink" version="1.1" id="Layer_1" x="0px" y="0px" width="100%" viewBox="0 0 820 861" enable-background="new 0 0 820 861" xml:space="preserve">
<path fill="#ffffff" opacity="1.000000" stroke="none" d=" M425.000000,862.000000   C283.333374,862.000000 142.166748,862.000000 1.000095,862.000000   C1.000063,575.000122 1.000063,288.000244 1.000032,1.000287   C274.333130,1.000191 547.666260,1.000191 820.999512,1.000096   C820.999695,287.999725 820.999695,574.999451 820.999878,861.999573   C689.166687,862.000000 557.333313,862.000000 425.000000,862.000000  M454.029053,839.641479   C473.001038,836.123657 492.227661,833.619690 510.904938,828.928467   C667.800537,789.521057 786.795227,656.085266 807.856689,495.270264   C816.519714,429.123199 809.410950,364.419495 786.026367,301.576263   C721.074280,127.025307 542.460876,18.924192 354.198486,46.002522   C273.030029,57.677212 201.002823,90.218719 141.274323,146.737244   C31.018562,251.067581 -9.870629,379.097717 20.350185,527.382690   C53.869297,691.851440 192.867157,817.514343 359.771942,838.863220   C390.803802,842.832520 421.973999,841.557922 454.029053,839.641479  z"/>
<path fill="#9a6c0c" opacity="1.000000" stroke="none" d=" M453.567352,839.677124   C421.973999,841.557922 390.803802,842.832520 359.771942,838.863220   C192.867157,817.514343 53.869297,691.851440 20.350185,527.382690   C-9.870629,379.097717 31.018562,251.067581 141.274323,146.737244   C201.002823,90.218719 273.030029,57.677212 354.198486,46.002522   C542.460876,18.924192 721.074280,127.025307 786.026367,301.576263   C809.410950,364.419495 816.519714,429.123199 807.856689,495.270264   C786.795227,656.085266 667.800537,789.521057 510.904938,828.928467   C492.227661,833.619690 473.001038,836.123657 453.567352,839.677124  M391.862091,544.634521   C355.268280,503.425110 326.928192,456.935364 304.265564,406.895447   C298.503632,394.172943 293.477966,381.066895 293.309906,366.695862   C293.215240,358.597260 296.051544,351.919586 302.664001,347.291718   C308.103149,343.485016 313.802155,339.988464 319.642609,336.828796   C332.560822,329.840149 345.112030,322.513580 355.920105,312.268066   C360.964203,307.486542 362.827606,303.107544 362.328796,296.012787   C360.290283,267.017914 350.969818,240.635712 334.934601,216.693420   C330.690765,210.356918 324.891083,204.430725 318.526581,200.275497   C304.564209,191.159897 287.639221,192.691040 273.567871,204.632462   C263.989685,212.760864 255.218155,222.110825 247.353622,231.929932   C231.998871,251.100754 221.296951,272.510254 219.972229,297.709564   C218.225052,330.945068 221.793915,363.596985 230.906982,395.577576   C246.874893,451.613861 273.256622,502.577850 307.349182,549.591309   C338.222473,592.165466 374.442596,629.387207 419.322144,657.445190   C445.252075,673.656128 472.569611,686.250732 503.754059,688.526733   C538.026611,691.028076 566.918274,679.275452 591.167603,655.716797   C604.869629,642.405090 606.535278,628.909607 596.789795,613.361572   C585.214478,594.894043 571.005615,578.586304 553.763367,565.106262   C533.812256,549.508362 512.553406,547.729187 491.103088,561.164307   C479.167603,568.639954 468.325256,577.880249 457.113312,586.485596   C447.402039,593.939209 446.910187,594.699890 437.573242,586.664490   C422.070862,573.323120 407.381531,559.036987 391.862091,544.634521  z"/>
<path fill="#ffffff" opacity="1.000000" stroke="none" d=" M392.105896,544.891663   C407.381531,559.036987 422.070862,573.323120 437.573242,586.664490   C446.910187,594.699890 447.402039,593.939209 457.113312,586.485596   C468.325256,577.880249 479.167603,568.639954 491.103088,561.164307   C512.553406,547.729187 533.812256,549.508362 553.763367,565.106262   C571.005615,578.586304 585.214478,594.894043 596.789795,613.361572   C606.535278,628.909607 604.869629,642.405090 591.167603,655.716797   C566.918274,679.275452 538.026611,691.028076 503.754059,688.526733   C472.569611,686.250732 445.252075,673.656128 419.322144,657.445190   C374.442596,629.387207 338.222473,592.165466 307.349182,549.591309   C273.256622,502.577850 246.874893,451.613861 230.906982,395.577576   C221.793915,363.596985 218.225052,330.945068 219.972229,297.709564   C221.296951,272.510254 231.998871,251.100754 247.353622,231.929932   C255.218155,222.110825 263.989685,212.760864 273.567871,204.632462   C287.639221,192.691040 304.564209,191.159897 318.526581,200.275497   C324.891083,204.430725 330.690765,210.356918 334.934601,216.693420   C350.969818,240.635712 360.290283,267.017914 362.328796,296.012787   C362.827606,303.107544 360.964203,307.486542 355.920105,312.268066   C345.112030,322.513580 332.560822,329.840149 319.642609,336.828796   C313.802155,339.988464 308.103149,343.485016 302.664001,347.291718   C296.051544,351.919586 293.215240,358.597260 293.309906,366.695862   C293.477966,381.066895 298.503632,394.172943 304.265564,406.895447   C326.928192,456.935364 355.268280,503.425110 392.105896,544.891663  z"/>
</svg>